<svg width="90" height="23" viewBox="0 0 90 23" fill="none" xmlns="http://www.w3.org/2000/svg">
<path d="M7.776 18.216C6.512 18.216 5.336 18.072 4.248 17.784C3.16 17.48 2.272 17.056 1.584 16.512C1.344 16.336 1.168 16.152 1.056 15.96C0.96 15.752 0.912 15.496 0.912 15.192C0.912 14.792 1.032 14.44 1.272 14.136C1.528 13.832 1.816 13.68 2.136 13.68C2.312 13.68 2.48 13.712 2.64 13.776C2.816 13.824 3.024 13.92 3.264 14.064C3.952 14.496 4.648 14.816 5.352 15.024C6.056 15.216 6.832 15.312 7.68 15.312C8.736 15.312 9.544 15.136 10.104 14.784C10.664 14.432 10.944 13.928 10.944 13.272C10.944 12.776 10.68 12.376 10.152 12.072C9.64 11.768 8.72 11.48 7.392 11.208C5.904 10.904 4.712 10.536 3.816 10.104C2.936 9.672 2.288 9.136 1.872 8.496C1.472 7.856 1.272 7.08 1.272 6.168C1.272 5.16 1.56 4.256 2.136 3.456C2.728 2.64 3.536 2.008 4.56 1.56C5.6 1.096 6.768 0.863999 8.064 0.863999C10.336 0.863999 12.208 1.432 13.68 2.568C13.92 2.76 14.088 2.96 14.184 3.168C14.296 3.36 14.352 3.6 14.352 3.888C14.352 4.288 14.224 4.64 13.968 4.944C13.728 5.248 13.448 5.4 13.128 5.4C12.952 5.4 12.784 5.376 12.624 5.328C12.48 5.28 12.272 5.176 12 5.016C11.344 4.6 10.736 4.288 10.176 4.08C9.632 3.872 8.936 3.768 8.088 3.768C7.112 3.768 6.344 3.96 5.784 4.344C5.224 4.712 4.944 5.224 4.944 5.88C4.944 6.264 5.048 6.584 5.256 6.84C5.48 7.08 5.84 7.296 6.336 7.488C6.848 7.68 7.568 7.88 8.496 8.088C10.672 8.568 12.232 9.184 13.176 9.936C14.136 10.688 14.616 11.72 14.616 13.032C14.616 14.056 14.328 14.96 13.752 15.744C13.192 16.528 12.392 17.136 11.352 17.568C10.328 18 9.136 18.216 7.776 18.216ZM28.1368 15.192C28.5048 15.544 28.6888 15.944 28.6888 16.392C28.6888 16.84 28.5208 17.24 28.1848 17.592C27.8648 17.944 27.4888 18.12 27.0568 18.12C26.6408 18.12 26.2568 17.952 25.9048 17.616L20.6488 12.744V16.416C20.6488 16.976 20.4728 17.4 20.1208 17.688C19.7848 17.976 19.3608 18.12 18.8488 18.12C18.3208 18.12 17.8808 17.976 17.5288 17.688C17.1928 17.4 17.0248 16.976 17.0248 16.416V2.664C17.0248 2.104 17.1928 1.68 17.5288 1.392C17.8808 1.104 18.3208 0.959999 18.8488 0.959999C19.3608 0.959999 19.7848 1.104 20.1208 1.392C20.4728 1.68 20.6488 2.104 20.6488 2.664V11.256L25.4488 6.528C25.8008 6.176 26.1928 6 26.6248 6C27.0728 6 27.4648 6.168 27.8008 6.504C28.1368 6.824 28.3048 7.208 28.3048 7.656C28.3048 8.072 28.1208 8.464 27.7528 8.832L24.5608 11.88L28.1368 15.192ZM39.7464 14.496C40.0664 14.496 40.3224 14.624 40.5144 14.88C40.7224 15.136 40.8264 15.464 40.8264 15.864C40.8264 16.136 40.7464 16.392 40.5864 16.632C40.4264 16.856 40.2024 17.048 39.9144 17.208C39.3704 17.496 38.7384 17.736 38.0184 17.928C37.2984 18.104 36.6344 18.192 36.0264 18.192C34.7464 18.192 33.6264 17.944 32.6664 17.448C31.7224 16.952 30.9944 16.248 30.4824 15.336C29.9704 14.408 29.7144 13.32 29.7144 12.072C29.7144 10.872 29.9624 9.808 30.4584 8.88C30.9544 7.952 31.6424 7.232 32.5224 6.72C33.4024 6.192 34.4024 5.928 35.5224 5.928C36.5944 5.928 37.5304 6.168 38.3304 6.648C39.1464 7.112 39.7784 7.784 40.2264 8.664C40.6744 9.528 40.8984 10.544 40.8984 11.712C40.8984 12.064 40.8104 12.336 40.6344 12.528C40.4744 12.704 40.2424 12.792 39.9384 12.792H33.2184C33.3304 13.736 33.6184 14.424 34.0824 14.856C34.5464 15.272 35.2104 15.48 36.0744 15.48C36.5384 15.48 36.9544 15.424 37.3224 15.312C37.6904 15.2 38.0984 15.048 38.5464 14.856C38.7704 14.76 38.9864 14.68 39.1944 14.616C39.4024 14.536 39.5864 14.496 39.7464 14.496ZM35.6184 8.424C34.9304 8.424 34.3784 8.648 33.9624 9.096C33.5464 9.528 33.2984 10.16 33.2184 10.992H37.8504C37.8024 10.144 37.5864 9.504 37.2024 9.072C36.8344 8.64 36.3064 8.424 35.6184 8.424ZM49.4049 15.504C49.8849 15.536 50.2369 15.656 50.4609 15.864C50.6849 16.072 50.7969 16.376 50.7969 16.776C50.7969 17.24 50.6129 17.592 50.2449 17.832C49.8769 18.072 49.3489 18.168 48.6609 18.12L47.9889 18.072C45.1889 17.848 43.7889 16.384 43.7889 13.68V8.928H42.8289C42.3009 8.928 41.9009 8.816 41.6289 8.592C41.3569 8.352 41.2209 8.016 41.2209 7.584C41.2209 7.136 41.3569 6.8 41.6289 6.576C41.9009 6.336 42.3009 6.216 42.8289 6.216H43.7889V4.344C43.7889 3.816 43.9489 3.4 44.2689 3.096C44.6049 2.792 45.0529 2.64 45.6129 2.64C46.1729 2.64 46.6129 2.792 46.9329 3.096C47.2529 3.4 47.4129 3.816 47.4129 4.344V6.216H49.0929C50.1809 6.216 50.7249 6.672 50.7249 7.584C50.7249 8.016 50.5889 8.352 50.3169 8.592C50.0449 8.816 49.6369 8.928 49.0929 8.928H47.4129V13.944C47.4129 14.424 47.5249 14.792 47.7489 15.048C47.9729 15.288 48.3009 15.424 48.7329 15.456L49.4049 15.504ZM57.5822 18.192C56.3662 18.192 55.3022 17.944 54.3902 17.448C53.4782 16.952 52.7742 16.248 52.2782 15.336C51.7982 14.424 51.5582 13.352 51.5582 12.12C51.5582 10.888 51.8142 9.808 52.3262 8.88C52.8542 7.936 53.5902 7.208 54.5342 6.696C55.4782 6.184 56.5662 5.928 57.7982 5.928C58.4382 5.928 59.0782 6.016 59.7182 6.192C60.3742 6.368 60.9582 6.616 61.4702 6.936C61.9662 7.24 62.2142 7.688 62.2142 8.28C62.2142 8.696 62.1182 9.04 61.9262 9.312C61.7342 9.568 61.4782 9.696 61.1582 9.696C60.9502 9.696 60.7502 9.664 60.5582 9.6C60.3822 9.52 60.1422 9.408 59.8382 9.264C59.5022 9.088 59.1982 8.952 58.9262 8.856C58.6702 8.76 58.3742 8.712 58.0382 8.712C57.1422 8.712 56.4542 9 55.9742 9.576C55.5102 10.136 55.2782 10.96 55.2782 12.048C55.2782 13.136 55.5102 13.968 55.9742 14.544C56.4542 15.12 57.1422 15.408 58.0382 15.408C58.3742 15.408 58.6702 15.368 58.9262 15.288C59.1822 15.192 59.4942 15.048 59.8622 14.856C60.1662 14.712 60.4062 14.608 60.5822 14.544C60.7582 14.464 60.9502 14.424 61.1582 14.424C61.4622 14.424 61.7102 14.56 61.9022 14.832C62.1102 15.104 62.2142 15.448 62.2142 15.864C62.2142 16.456 61.9662 16.896 61.4702 17.184C60.9582 17.504 60.3662 17.752 59.6942 17.928C59.0222 18.104 58.3182 18.192 57.5822 18.192ZM71.4576 5.928C74.1936 5.928 75.5616 7.584 75.5616 10.896V16.44C75.5616 16.968 75.3936 17.384 75.0576 17.688C74.7376 17.992 74.2976 18.144 73.7376 18.144C73.1776 18.144 72.7376 17.992 72.4176 17.688C72.0976 17.384 71.9376 16.968 71.9376 16.44V10.848C71.9376 10.144 71.7856 9.624 71.4816 9.288C71.1936 8.936 70.7376 8.76 70.1136 8.76C69.3616 8.76 68.7536 9 68.2896 9.48C67.8416 9.96 67.6176 10.6 67.6176 11.4V16.44C67.6176 16.968 67.4576 17.384 67.1376 17.688C66.8176 17.992 66.3776 18.144 65.8176 18.144C65.2576 18.144 64.8096 17.992 64.4736 17.688C64.1536 17.384 63.9936 16.968 63.9936 16.44V2.616C63.9936 2.12 64.1616 1.72 64.4976 1.416C64.8496 1.112 65.3056 0.959999 65.8656 0.959999C66.3936 0.959999 66.8176 1.104 67.1376 1.392C67.4576 1.68 67.6176 2.064 67.6176 2.544V7.776C68.0336 7.168 68.5696 6.712 69.2256 6.408C69.8816 6.088 70.6256 5.928 71.4576 5.928ZM86.307 7.008C86.451 6.672 86.651 6.424 86.907 6.264C87.179 6.104 87.467 6.024 87.771 6.024C88.235 6.024 88.643 6.176 88.995 6.48C89.347 6.768 89.523 7.12 89.523 7.536C89.523 7.76 89.467 7.984 89.355 8.208L82.899 21.456C82.739 21.792 82.523 22.04 82.251 22.2C81.979 22.376 81.691 22.464 81.387 22.464C80.939 22.464 80.547 22.32 80.211 22.032C79.875 21.744 79.707 21.392 79.707 20.976C79.707 20.72 79.763 20.48 79.875 20.256L81.459 16.968L77.187 8.208C77.091 7.984 77.043 7.768 77.043 7.56C77.043 7.128 77.227 6.76 77.595 6.456C77.979 6.152 78.411 6 78.891 6C79.211 6 79.507 6.088 79.779 6.264C80.051 6.424 80.267 6.672 80.427 7.008L83.403 13.488L86.307 7.008Z" fill="black"/>
</svg>
