<svg width="105" height="23" viewBox="0 0 105 23" fill="none" xmlns="http://www.w3.org/2000/svg">
  <path d=" 
    
   
    
M 7.824 18.216 c 1.264 0 2.44 -0.144 3.528 -0.432 c 1.088 -0.304 1.976 -0.728 2.664 -1.272 A 1.887 1.887 0 0 0 14.544 15.96 a 1.828 1.828 0 0 0 0.144 -0.768 c 0 -0.4 -0.12 -0.752 -0.36 -1.056 c -0.256 -0.304 -0.544 -0.456 -0.864 -0.456 c -0.176 0 -0.344 0.032 -0.504 0.096 c -0.176 0.048 -0.384 0.144 -0.624 0.288 a 8.409 8.409 0 0 1 -2.088 0.96 c -0.704 0.192 -0.864 0.275 -1.045 0.275 c -6 -1 -7 -11.7 0.697 -11.497 L 8.1 3.78 M 8.1 3.78 c 0.805 0.048 1.544 0.104 2.088 0.312 c 0.56 0.208 1.168 0.52 1.824 0.936 a 3.67 3.67 0 0 0 0.625 0.3 c 0.16 0.048 0.328 0.072 0.504 0.072 c 0.32 0 0.6 -0.152 0.84 -0.456 c 0.256 -0.304 0.384 -0.656 0.384 -1.056 c 0 -0.288 -0.056 -0.528 -0.168 -0.72 c -0.096 -0.208 -0.264 -0.408 -0.504 -0.6 c -1.472 -1.136 -3.344 -1.704 -5.616 -1.704 C 8.064 0.864 6.768 0.864 5.6 1.096 c -7 1.9 -6 14 -1 16 c 0.5 0.7 2 1 3.3 1.14 M 24.3868 5.928 C 26.3388 5.928 27.7408 7.584 27.7408 10.896 V 16.44 C 27.7408 16.968 27.5648 17.384 27.2488 17.688 C 26.9468 17.992 26.5368 18.144 26.0468 18.144 C 25.5488 18.144 25.1468 17.992 24.8368 17.688 C 24.5268 17.384 24.4368 16.968 24.4368 16.44 V 10.848 C 24.4368 10.144 24.3248 9.624 24.0188 9.288 C 23.7248 8.936 23.1468 8.76 22.5328 8.76 C 21.7848 8.76 21.1768 9 20.7128 9.48 C 20.2638 9.96 20.0708 10.6 20.0708 11.4 V 16.44 C 20.0708 16.968 19.9028 17.384 19.5968 17.688 C 19.2988 17.992 18.7988 18.144 18.3288 18.144 C 17.8588 18.144 17.4108 17.992 17.0768 17.688 C 16.7528 17.384 16.6408 16.968 16.6408 16.44 V 2.616 C 16.6408 2.12 16.7188 1.72 16.9968 1.416 C 17.2488 1.112 17.7048 0.96 18.2568 0.96 C 18.7848 0.96 19.3288 1.104 19.5968 1.392 C 19.9028 1.68 20.0708 2.064 20.0708 2.544 V 7.776 C 20.5288 7.168 20.9696 6.712 21.5256 6.408 C 22.0816 6.088 22.7252 5.928 23.2368 5.928 Z M 39.7464 14.496 C 40.0664 14.496 40.3224 14.624 40.5144 14.88 C 40.7224 15.136 40.8264 15.464 40.8264 15.864 C 40.8264 16.136 40.7464 16.392 40.5864 16.632 C 40.4264 16.856 40.2024 17.048 39.9144 17.208 C 39.3704 17.496 38.7384 17.736 38.0184 17.928 C 37.2984 18.104 36.6344 18.192 36.0264 18.192 C 34.7464 18.192 33.6264 17.944 32.6664 17.448 C 31.7224 16.952 30.9944 16.248 30.4824 15.336 C 29.9704 14.408 29.7144 13.32 29.7144 12.072 C 29.7144 10.872 29.9624 9.808 30.4584 8.88 C 30.9544 7.952 31.6424 7.232 32.5224 6.72 C 33.4024 6.192 34.4024 5.928 35.5224 5.928 C 36.5944 5.928 37.5304 6.168 38.3304 6.648 C 39.1464 7.112 39.7784 7.784 40.2264 8.664 C 40.6744 9.528 40.8984 10.544 40.8984 11.712 C 40.8984 12.064 40.8104 12.336 40.6344 12.528 C 40.4744 12.704 40.2424 12.792 39.9384 12.792 H 33.2184 C 33.3304 13.736 33.6184 14.424 34.0824 14.856 C 34.5464 15.272 35.2104 15.48 36.0744 15.48 C 36.5384 15.48 36.9544 15.424 37.3224 15.312 C 37.6904 15.2 38.0984 15.048 38.5464 14.856 C 38.7704 14.76 38.9864 14.68 39.1944 14.616 C 39.4024 14.536 39.5864 14.496 39.7464 14.496 Z M 35.6184 8.424 C 34.9304 8.424 34.3784 8.648 33.9624 9.096 C 33.5464 9.528 33.2984 10.16 33.2184 10.992 H 37.8504 C 37.8024 10.144 37.5864 9.504 37.2024 9.072 C 36.8344 8.64 36.3064 8.424 35.6184 8.424 Z M 48.9576 5.9 c 1 0.2 2.2 0.3 3 2 C 52.9336 7.168 53.4696 6 56.0256 5.9 C 58.9136 5.928 60.2616 7.584 60.2616 10.896 V 16.44 C 60.2616 16.968 60.0936 17.384 59.7576 17.688 C 59.4376 17.992 59.0976 18.144 58.5376 18.144 C 58.0776 18.144 57.6376 17.992 57.3176 17.688 C 57.0076 17.384 56.8876 16.968 56.8876 16.44 V 10.848 C 56.8876 10.144 56.7856 9.624 56.5816 9.288 C 56.3736 8.936 55.7376 8.76 55.1136 8.76 C 54.3616 8.76 53.7536 9 53.2896 9.48 C 52.8416 9.96 52.7176 10.6 52.7176 11.4 V 16.44 C 52.7176 16.968 52.5576 17.384 52.2376 17.688 C 51.9276 17.992 51.4776 18.144 50.9776 18.144 C 51.0776 18.144 50.6376 17.992 50.3176 17.688 C 50.0076 17.384 49.8876 16.968 49.8876 16.44 V 10.848 C 49.8876 10.144 49.7856 9.624 49.5816 9.288 C 49.3736 8.936 48.7376 8.76 48.1136 8.76 C 47.3616 8.76 46.7536 9 46.2896 9.48 C 45.8416 9.96 45.7176 10.6 45.7176 11.4 V 16.44 C 45.7176 16.968 45.5576 17.384 45.2376 17.688 C 44.9276 17.992 44.4776 18.144 43.9776 18.144 C 43.4756 18.144 43.0296 17.992 42.6936 17.688 C 42.3576 17.384 42.2436 16.968 42.2436 16.44 V 6.616 C 42.2436 6.12 42.4216 5.72 42.6976 5.416 C 43.0096 5.112 43.4056 4.96 43.9556 4.96 C 44.4936 4.96 44.9276 5.104 45.2376 5.392 C 45.5576 5.68 45.7176 6.064 45.7176 6.544 V 7.776 C 45.9336 7.168 46.4696 6.712 47.0256 6.408 C 47.5816 6.088 48.1256 5.928 48.9576 5.928 Z M 65.672 13.264 L 65.944 5.88 c 0 -0.656 0.28 -1.168 0.84 -1.536 c 0.56 -0.384 1.328 -0.576 2.304 -0.576 L 68.512 3.768 c 0.976 0 1.744 0.192 2.304 0.576 c 0.56 0.368 0.84 0.88 0.84 1.536 L 71.944 13.272 c 0 0.656 -0.28 1.16 -0.84 1.512 c -0.56 0.352 -1.368 0.528 -2.399 0.522 L 68.92 15.312 c -1.056 0 -1.864 -0.176 -2.424 -0.528 c -0.56 -0.352 -0.84 -0.856 -0.84 -1.512 M 75.329 6.18 c -0.001 -1.02 -0.289 -1.924 -0.865 -2.724 c -0.592 -0.816 -1.4 -1.448 -2.424 -1.896 c -1.04 -0.464 -2.208 -0.696 -3.143 -0.692 c -1.132 -0.004 -2.3 0.228 -3.34 0.692 c -1.024 0.448 -1.832 1.08 -2.424 1.896 c -0.576 0.8 -0.864 1.704 -0.864 2.712 L 62.409 13.026 c 0 1.024 0.288 1.928 0.864 2.712 c 0.56 0.784 1.36 1.392 2.4 1.824 c 1.239 0.425 2.295 0.587 3.547 0.639 c 1.339 0.009 2.531 -0.207 3.555 -0.639 L 73.893 16.659 L 74.9048 17.616 C 75.2568 17.952 75.6408 18.12 76.0568 18.12 C 76.4888 18.12 76.8648 17.944 77.1848 17.592 C 77.5208 17.24 77.6888 16.84 77.6888 16.392 C 77.6888 15.944 77.5048 15.544 75.565 13.741 C 75.587 13.5057 75.609 13.2703 75.631 13.035 C 75.5863 13.5057 75.6077 13.2703 75.629 13.035 L 75.329 6.18 Z M 82.5424 18.1 c -1 -0.2 -2.2 -0.3 -3 -2 C 78.6584 14.04 78.7824 13.4 78.7824 12.6 V 7.56 C 78.7824 7.032 78.9424 6.616 79.2624 6.312 C 79.5724 6.008 80.0224 5.856 80.5224 5.856 C 80.4224 5.856 80.8624 6.008 81.1824 6.312 C 81.4924 6.616 81.6124 7.032 81.6124 7.56 V 13.152 C 81.6124 13.856 81.7144 14.376 81.9184 14.712 C 82.1264 15.064 82.7624 15.24 83.3864 15.24 C 84.1384 15.24 84.7464 15 85.2104 14.52 C 85.6584 14.04 85.7824 13.4 85.7824 12.6 V 7.56 C 85.7824 7.032 85.9424 6.616 86.2624 6.312 C 86.5724 6.008 87.0224 5.856 87.5224 5.856 C 88.0244 5.856 88.4704 6.008 88.8064 6.312 C 89.1424 6.616 89.2564 7.032 89.2564 7.56 V 17.384 C 89.2564 17.88 89.0784 18.28 88.8024 18.584 C 88.4904 18.888 88.0944 19.04 87.5444 19.04 C 87.0064 19.04 86.5724 18.896 86.2624 18.608 C 85.9424 18.32 85.7824 17.936 85.7824 17.456 V 16.224 C 85.5664 16.832 85.0304 17.288 84.4744 17.592 C 83.9184 17.912 83.3744 18.072 82.5424 18.072 Z M 94.5424 18.1 c -1 -0.2 -2.2 -0.3 -3 -2 C 90.6584 14.04 90.7824 13.4 90.7824 12.6 V 7.56 C 90.7824 7.032 90.9424 6.616 91.2624 6.312 C 91.5724 6.008 92.0224 5.856 92.5224 5.856 C 92.4224 5.856 92.8624 6.008 93.1824 6.312 C 93.4924 6.616 93.6124 7.032 93.6124 7.56 V 13.152 C 93.6124 13.856 93.7144 14.376 93.9184 14.712 C 94.1264 15.064 94.7624 15.24 95.3864 15.24 C 96.1384 15.24 96.7464 15 97.2104 14.52 C 97.6584 14.04 97.7824 13.4 97.7824 12.6 V 7.56 C 97.7824 7.032 97.9424 6.616 98.2624 6.312 C 98.5724 6.008 99.0224 5.856 99.5224 5.856 C 100.0244 5.856 100.4704 6.008 100.8064 6.312 C 101.1424 6.616 101.2564 7.032 101.2564 7.56 V 17.384 C 101.2564 17.88 101.0784 18.28 100.8024 18.584 C 100.4904 18.888 100.0944 19.04 99.5444 19.04 C 99.0064 19.04 98.5724 18.896 98.2624 18.608 C 97.9424 18.32 97.7824 17.936 97.7824 17.456 V 16.224 C 97.5664 16.832 97.0304 17.288 96.4744 17.592 C 95.9184 17.912 95.3744 18.072 94.5424 18.072 Z
 " fill="black"/>
</svg>
