<svg xmlns="http://www.w3.org/2000/svg" width="180" height="46" viewBox="0 0 180 46" version="1.1"><path d="M 43 21.500 C 43 30.006, 43.275 32, 44.450 32 C 45.514 32, 45.980 30.469, 46.200 26.250 C 46.495 20.594, 46.549 20.500, 49.500 20.500 C 52.451 20.500, 52.505 20.594, 52.800 26.250 C 53.020 30.469, 53.486 32, 54.550 32 C 56.676 32, 56.574 20.717, 54.429 18.571 C 52.658 16.800, 49.433 16.490, 48.500 18 C 47.153 20.180, 46 18.797, 46 15 C 46 12.111, 45.583 11, 44.500 11 C 43.262 11, 43 12.833, 43 21.500 M 25.672 14.043 C 21.220 17.545, 20.883 25.883, 25.025 30.025 C 27.767 32.767, 34.301 32.699, 37.100 29.900 C 38.500 28.500, 38.867 27.467, 38.200 26.800 C 37.533 26.133, 36.500 26.500, 35.100 27.900 C 31.261 31.739, 26.807 29.949, 25.510 24.046 C 24.559 19.717, 26.830 15.578, 30.379 15.172 C 31.955 14.991, 33.729 15.329, 34.322 15.922 C 35.824 17.424, 38 17.269, 38 15.661 C 38 14.060, 33.829 12, 30.588 12 C 29.313 12, 27.101 12.919, 25.672 14.043 M 106.923 14.923 C 102.223 19.623, 103.240 28.814, 108.730 31.258 C 110.253 31.936, 112.320 33.506, 113.323 34.746 C 114.325 35.985, 116.237 37, 117.573 37 C 120.747 37, 120.698 35.392, 117.500 34.589 C 115.066 33.978, 113.955 32, 116.045 32 C 116.620 32, 118.195 30.895, 119.545 29.545 C 123.245 25.846, 123.021 18.868, 119.077 14.923 C 117.082 12.928, 115.152 12, 113 12 C 110.848 12, 108.918 12.928, 106.923 14.923 M 108.395 17.519 C 106.389 20.581, 107.102 26.870, 109.668 28.747 C 115.762 33.203, 122.079 23.841, 117.443 17.223 C 115.243 14.081, 110.547 14.235, 108.395 17.519 M 62.455 19.455 C 57.511 24.398, 60.494 32, 67.378 32 C 70.812 32, 73.969 29.717, 72.118 28.573 C 71.579 28.240, 70.856 28.425, 70.510 28.984 C 69.436 30.722, 65.130 30.112, 64.035 28.066 C 62.463 25.127, 62.627 25, 68 25 C 72.636 25, 73 24.822, 73 22.557 C 73 19.913, 69.714 17, 66.732 17 C 65.729 17, 63.805 18.105, 62.455 19.455 M 78 24.500 C 78 30.290, 78.322 32, 79.411 32 C 80.428 32, 80.917 30.355, 81.161 26.119 C 81.583 18.804, 81.240 17, 79.427 17 C 78.318 17, 78 18.671, 78 24.500 M 83.250 17.662 C 81.099 18.530, 81.885 20, 84.500 20 C 86.889 20, 87 20.267, 87 26 C 87 30.667, 87.333 32, 88.500 32 C 89.607 32, 90 30.842, 90 27.582 C 90 21.624, 90.773 20, 93.607 20 C 95.865 20, 96 20.338, 96 26 C 96 30.667, 96.333 32, 97.500 32 C 98.675 32, 99 30.633, 99 25.700 C 99 22.133, 98.479 18.879, 97.800 18.200 C 96.148 16.548, 93.497 16.696, 91.979 18.525 C 90.845 19.892, 90.538 19.892, 89.028 18.525 C 87.333 16.992, 85.566 16.728, 83.250 17.662 M 127.206 24.250 C 127.495 31.372, 127.550 31.506, 130.310 31.822 C 131.856 31.999, 133.842 31.549, 134.723 30.822 C 135.985 29.781, 136.415 29.766, 136.746 30.750 C 137.914 34.220, 139 31.168, 139 24.417 C 139 18.797, 138.676 16.940, 137.750 17.245 C 137.019 17.485, 136.292 20.116, 136 23.578 C 135.534 29.095, 135.329 29.500, 133 29.500 C 130.632 29.500, 130.484 29.171, 130.202 23.250 C 129.976 18.501, 129.545 17, 128.408 17 C 127.191 17, 126.967 18.350, 127.206 24.250 M 145.206 24.250 C 145.495 31.372, 145.550 31.506, 148.310 31.822 C 149.856 31.999, 151.842 31.549, 152.723 30.822 C 153.985 29.781, 154.415 29.766, 154.746 30.750 C 155.909 34.206, 157 31.182, 157 24.500 C 157 18.500, 156.700 17, 155.500 17 C 154.335 17, 154 18.326, 154 22.933 C 154 27.978, 153.702 28.960, 152.009 29.497 C 148.787 30.520, 148 29.232, 148 22.941 C 148 18.252, 147.675 17, 146.456 17 C 145.179 17, 144.963 18.254, 145.206 24.250 M 64.562 20.581 C 62.501 22.642, 63.427 24, 66.892 24 C 70.420 24, 71.184 23.212, 69.930 20.869 C 68.707 18.584, 66.668 18.475, 64.562 20.581" stroke="none" fill="#000000" fill-rule="evenodd"/><path d="M -0 23.005 L -0 46.011 90.250 45.755 L 180.500 45.500 180.769 22.750 L 181.038 -0 90.519 -0 L 0 0 -0 23.005 M 0.429 23.500 C 0.429 36.150, 0.573 41.187, 0.747 34.694 C 0.922 28.200, 0.921 17.850, 0.746 11.694 C 0.571 5.537, 0.428 10.850, 0.429 23.500 M 42.216 21.738 C 42.462 31.037, 42.735 32.521, 44.250 32.811 C 45.723 33.094, 46 32.375, 46 28.264 C 46 22.794, 47.859 19.348, 50.304 20.286 C 51.454 20.728, 51.981 22.510, 52.199 26.689 C 52.437 31.265, 52.867 32.550, 54.250 32.814 C 55.779 33.105, 56 32.280, 56 26.273 C 56 22.261, 55.501 18.901, 54.800 18.200 C 53.253 16.653, 48.747 16.653, 47.200 18.200 C 46.267 19.133, 46 18.467, 46 15.200 C 46 11.643, 45.688 11, 43.966 11 C 42.030 11, 41.946 11.514, 42.216 21.738 M 24.455 14.455 C 22.487 16.422, 22 17.926, 22 22.031 C 22 26.360, 22.453 27.607, 24.923 30.077 C 28.051 33.205, 31.267 33.747, 35.434 31.848 C 38.399 30.497, 39.812 27.120, 37.905 25.941 C 37.071 25.426, 36.104 25.834, 35.241 27.066 C 33.436 29.644, 28.415 29.644, 27.035 27.066 C 25.380 23.973, 25.798 18.493, 27.829 16.655 C 30.072 14.625, 31.930 14.562, 34.590 16.425 C 35.858 17.314, 37.151 17.525, 38.022 16.986 C 39.183 16.269, 39.103 15.772, 37.555 14.061 C 34.780 10.995, 27.702 11.208, 24.455 14.455 M 107.261 13.529 C 102.074 17.163, 102.727 29.827, 108.191 31.561 C 109.220 31.887, 111.088 33.261, 112.342 34.613 C 114.955 37.431, 120.500 38.383, 120.500 36.014 C 120.500 35.196, 119.600 34.365, 118.500 34.167 C 115.923 33.702, 114.058 32, 116.126 32 C 118.356 32, 121.683 27.977, 122.449 24.354 C 123.259 20.518, 121.006 14.608, 118.150 13.080 C 115.246 11.526, 109.801 11.751, 107.261 13.529 M 109.571 16.571 C 107.700 18.442, 107.449 26.049, 109.200 27.800 C 110.747 29.347, 115.253 29.347, 116.800 27.800 C 117.460 27.140, 118 24.697, 118 22.371 C 118 17.816, 116.090 15, 113 15 C 111.979 15, 110.436 15.707, 109.571 16.571 M 62 19 C 59.538 21.462, 59.286 28.144, 61.570 30.427 C 63.987 32.844, 68.040 33.490, 70.831 31.904 C 74.395 29.878, 73.583 28.500, 68.825 28.500 C 66.413 28.500, 64.512 27.979, 64.262 27.250 C 63.956 26.358, 65.288 26, 68.917 26 C 73.540 26, 74 25.794, 74 23.723 C 74 22.470, 73.299 20.445, 72.443 19.223 C 70.408 16.317, 64.802 16.198, 62 19 M 77.208 24.739 C 77.451 31.177, 77.794 32.535, 79.250 32.812 C 80.744 33.098, 81 32.348, 81 27.696 C 81 21.957, 82.645 19.266, 85.487 20.357 C 86.609 20.787, 87 22.515, 87 27.042 C 87 32.316, 87.238 33.101, 88.750 32.815 C 90.114 32.556, 90.610 31.161, 91 26.491 C 91.430 21.333, 91.778 20.500, 93.500 20.500 C 95.257 20.500, 95.536 21.266, 95.799 26.814 C 96.051 32.128, 96.368 33.076, 97.799 32.804 C 99.147 32.547, 99.562 31.167, 99.800 26.153 C 99.980 22.349, 99.632 19.262, 98.928 18.413 C 97.540 16.741, 92.859 16.541, 91.313 18.087 C 90.530 18.870, 90.038 18.870, 89.554 18.087 C 88.651 16.627, 83.697 16.703, 82.200 18.200 C 81.267 19.133, 81 19.133, 81 18.200 C 81 17.540, 80.081 17, 78.958 17 C 77.053 17, 76.935 17.518, 77.208 24.739 M 126 22.889 C 126 30.823, 128.361 34.052, 132.908 32.338 C 134.708 31.661, 136.226 31.557, 136.555 32.088 C 136.865 32.590, 137.766 33, 138.559 33 C 139.694 33, 140 31.299, 140 25 C 140 17.735, 139.821 17, 138.050 17 C 136.377 17, 136.057 17.818, 135.800 22.750 C 135.519 28.137, 135.342 28.500, 133 28.500 C 130.658 28.500, 130.481 28.137, 130.200 22.750 C 129.943 17.818, 129.623 17, 127.950 17 C 126.237 17, 126 17.717, 126 22.889 M 144 23.429 C 144 31.774, 147.099 35.120, 151.974 32.037 C 152.925 31.436, 153.686 31.493, 154.123 32.199 C 154.494 32.800, 155.519 33.015, 156.399 32.677 C 157.671 32.189, 158 30.514, 158 24.531 C 158 17.667, 157.823 17, 156 17 C 154.302 17, 154 17.667, 154 21.418 C 154 27.376, 153.227 29, 150.393 29 C 148.135 29, 148 28.662, 148 23 C 148 17.667, 147.778 17, 146 17 C 144.207 17, 144 17.667, 144 23.429 M 64.709 20.624 C 63.223 22.110, 64.112 23, 67.083 23 C 69.103 23, 70.025 22.569, 69.755 21.750 C 69.288 20.332, 65.783 19.550, 64.709 20.624" stroke="none" fill="#fafafa" fill-rule="evenodd"/></svg>