<svg width="71" height="136" viewBox="0 0 71 136" fill="none" xmlns="http://www.w3.org/2000/svg">
<g clip-path="url(#clip0)">
<path d="M69.9554 62.5149C65.2021 61.0307 63.9386 56.8891 62.675 52.4868C62.3842 51.484 62.0934 50.5514 61.7625 49.6088C61.7134 49.4855 61.633 49.3772 61.5293 49.2945C61.4255 49.2119 61.302 49.1577 61.1708 49.1375C61.1152 49.0704 61.0465 49.0154 60.9689 48.9757C60.8914 48.9361 60.8065 48.9126 60.7196 48.9068C60.575 48.8924 60.4301 48.9299 60.3107 49.0126C60.1913 49.0953 60.1051 49.2177 60.0678 49.3581C59.7665 50.3969 59.5221 51.4514 59.3357 52.5169C59.1038 54.6665 58.3611 56.7295 57.1697 58.5337C55.4046 60.757 53.0931 62.4846 50.4609 63.5477C50.3335 63.596 50.2172 63.6698 50.1192 63.7646C50.0212 63.8593 49.9436 63.973 49.891 64.0988C49.8385 64.2246 49.8121 64.3597 49.8135 64.496C49.815 64.6323 49.8442 64.7669 49.8994 64.8915C49.9981 65.1661 50.189 65.3981 50.4394 65.548C50.6898 65.6979 50.9845 65.7565 51.2732 65.7138C53.9808 66.8269 55.9362 68.1606 57.29 71.3094C57.8862 72.8171 58.3493 74.374 58.6739 75.9624C58.9346 77.0455 59.2054 78.1686 59.5563 79.2616C59.5924 79.3832 59.6594 79.4934 59.7508 79.5813C59.8422 79.6692 59.9549 79.7318 60.0778 79.763C60.1322 79.8268 60.1999 79.8777 60.2761 79.9124C60.3523 79.9471 60.4353 79.9645 60.519 79.9636C60.6745 79.9553 60.8221 79.8924 60.9358 79.786C61.0495 79.6797 61.1221 79.5366 61.1408 79.382C62.0232 71.8409 64.8812 67.0676 70.166 64.34C70.33 64.2574 70.4649 64.1267 70.5527 63.9655C70.6405 63.8042 70.677 63.62 70.6574 63.4374C70.6503 63.2299 70.5789 63.0297 70.4532 62.8644C70.3275 62.6992 70.1535 62.577 69.9554 62.5149V62.5149ZM67.5186 63.628C64.064 65.9628 61.5014 69.3983 60.2483 73.3752C59.7957 71.6572 59.1215 70.0054 58.2427 68.4615C57.206 66.6828 55.6581 65.2572 53.8003 64.37C55.6249 63.301 57.2079 61.8649 58.449 60.1526C59.6901 58.4403 60.5623 56.489 61.0104 54.4222C61.7725 57.3905 63.5475 61.5722 67.5186 63.628Z" fill="#6E4ACC"/>
<path d="M36.4416 13.648C30.9162 12.0937 27.4164 7.27023 27.1657 0.752012C27.1543 0.559624 27.0741 0.377746 26.9397 0.239643C26.8053 0.101539 26.6256 0.0164403 26.4336 -8.91979e-05C26.2525 -0.0210559 26.0702 0.0272504 25.9233 0.135132C25.7763 0.243015 25.6756 0.402487 25.6414 0.581536V0.581536C25.5636 0.604658 25.4894 0.638403 25.4208 0.681816C25.3302 0.751539 25.255 0.839162 25.1998 0.939228C25.1446 1.03929 25.1106 1.14966 25.0999 1.26344C24.1974 8.78446 20.4068 14.1294 14.4301 16.3055C14.1927 16.4044 13.9929 16.5763 13.8595 16.7962C13.7261 17.0161 13.6661 17.2726 13.688 17.5289C13.7048 17.7427 13.7947 17.9442 13.9426 18.0995C14.0906 18.2547 14.2875 18.3543 14.5003 18.3813C20.1761 19.2938 21.901 24.9697 23.2848 29.5425C23.3561 29.7671 23.4982 29.9627 23.6897 30.1001C23.8813 30.2374 24.1121 30.3091 24.3478 30.3046H24.3979C24.6311 30.3098 24.8589 30.2335 25.0419 30.0889C25.2249 29.9443 25.3518 29.7404 25.4007 29.5124C26.1512 26.5085 27.5475 23.7044 29.4924 21.2954C31.4373 18.8863 33.8841 16.9302 36.6622 15.5634C36.8417 15.4695 36.9886 15.3234 37.0835 15.1444C37.1783 14.9654 37.2168 14.7619 37.1937 14.5606C37.1691 14.3524 37.0851 14.1556 36.9517 13.9938C36.8183 13.832 36.6413 13.712 36.4416 13.648V13.648ZM33.7039 14.9116C29.6046 17.5645 26.3864 21.3761 24.4581 25.8622C22.9539 21.4498 20.6775 18.5217 17.6591 17.1278C21.6228 14.8744 24.6179 11.2404 26.0726 6.91924C26.7548 8.68885 27.7802 10.306 29.0899 11.6777C30.3996 13.0494 31.9677 14.1484 33.7039 14.9116V14.9116Z" fill="#6E4ACC"/>
<path d="M16.5359 122.342C12.5247 121.249 10.108 118.271 9.28568 113.477C9.25889 113.34 9.19666 113.212 9.10518 113.106V113.036C9.11081 112.945 9.09745 112.854 9.06595 112.769C9.03445 112.684 8.9855 112.606 8.92225 112.541C8.85899 112.476 8.78282 112.425 8.69862 112.391C8.61442 112.357 8.52405 112.341 8.4333 112.344C8.2642 112.33 8.09616 112.381 7.96198 112.484C7.8547 112.53 7.76129 112.604 7.69095 112.697C7.62061 112.79 7.57578 112.9 7.56086 113.016C6.93912 118.531 4.61262 122.412 0.461023 124.849C0.285247 124.942 0.14603 125.092 0.065943 125.274C-0.0141444 125.456 -0.0304075 125.659 0.0197902 125.852C0.0666867 126.055 0.175966 126.239 0.332372 126.377C0.488778 126.516 0.684504 126.602 0.892228 126.624C3.00033 126.81 4.95601 127.8 6.35423 129.389C7.75245 130.977 8.4861 133.043 8.40321 135.158C8.40234 135.319 8.44466 135.477 8.52579 135.617C8.60691 135.756 8.72387 135.871 8.8645 135.95C9.01438 136.035 9.18361 136.08 9.35588 136.08C9.53494 136.083 9.71153 136.038 9.86731 135.95C10.0039 135.866 10.1158 135.748 10.1915 135.607C10.2673 135.466 10.3042 135.308 10.2985 135.148C10.2985 130.836 13.698 127.045 16.917 123.826C17.0244 123.719 17.1014 123.586 17.1401 123.44C17.1789 123.293 17.178 123.14 17.1376 122.994C17.109 122.839 17.0373 122.696 16.9309 122.581C16.8244 122.466 16.6875 122.383 16.5359 122.342V122.342ZM3.41929 125.22C5.90174 123.432 7.71586 120.866 8.57369 117.93C9.86581 120.504 12.0667 122.509 14.751 123.555C12.6308 125.732 10.8888 128.246 9.59655 130.996C9.04976 129.641 8.21361 128.423 7.14661 127.425C6.07961 126.427 4.8075 125.675 3.41929 125.22V125.22Z" fill="#6E4ACC"/>
</g>
<defs>
<clipPath id="clip0">
<rect width="70.6574" height="136" fill="white"/>
</clipPath>
</defs>
</svg>
