<svg width="983" height="562" viewBox="0 0 983 562" fill="none" xmlns="http://www.w3.org/2000/svg">
<g clip-path="url(#clip0)">
<path d="M144.712 5.58104C107.408 -1.62041 115.906 53.1469 114.574 75.3274C111.693 124.297 109.233 173.279 107.192 222.273C104.816 275.816 101.791 330.295 104.96 383.73C106.544 410.628 108.345 437.417 110.397 464.315C111.261 475.909 108.381 500.322 120.551 506.623C121.25 506.944 122.044 506.99 122.776 506.756C123.509 506.522 124.128 506.025 124.514 505.363C124.901 504.697 125.026 503.912 124.866 503.159C124.706 502.41 124.271 501.744 123.648 501.294C117.815 497.405 119.615 478.357 119.183 472.668C118.463 462.262 117.526 451.892 116.626 441.522C114.754 419.918 114.106 398.313 113.026 376.709C110.685 333.5 113.026 289.247 114.646 245.93C116.23 207.546 119.327 168.838 119.183 130.455C119.183 109.858 121.451 89.6223 121.955 69.2421C122.423 50.0862 117.815 14.1868 144.028 11.2342C146.944 10.9101 148.277 6.22918 144.784 5.58104H144.712Z" fill="#191919"/>
<path d="M142.732 11.8824C253.923 4.68095 365.582 12.8906 477.024 10.6582C535.968 9.46993 595.2 9.68597 654.144 11.6304C683.238 12.6026 712.224 13.1787 741.354 13.0347C771.492 13.0347 801.522 9.97403 831.625 9.86601C832.932 9.88509 834.195 9.38369 835.135 8.47209C836.071 7.56046 836.612 6.31334 836.63 5.00502C836.648 3.69669 836.147 2.43439 835.236 1.49577C834.325 0.557141 833.076 0.0190995 831.769 0C772.393 1.29626 713.737 4.14084 654.289 2.34048C594.12 0.54011 533.592 0.432088 473.46 1.9444C415.657 3.40869 357.805 3.86477 299.905 3.31267C247.01 2.77256 194.691 -0.54011 142.049 6.84139C139.204 7.23747 139.852 12.0625 142.732 11.8824Z" fill="#191919"/>
<path d="M825.072 9.03824C831.409 9.25428 840.231 8.3541 845.488 11.4867C853.121 15.9877 858.631 28.4462 860.359 36.9439C861.76 46.4844 862.53 56.1074 862.663 65.7498C863.697 84.3836 863.466 103.066 861.979 121.669C858.667 163.87 855.714 206.07 852.797 248.307C849.809 291.228 846.64 336.021 849.485 378.977C850.853 399.681 853.085 420.35 854.31 441.054C855.39 459.706 860.863 483.975 852.617 501.366C851.069 504.643 855.39 508.82 858.054 505.543C868.857 492.508 865.76 475.765 865.256 460.102C864.464 435.149 862.951 410.304 861.403 385.351C858.126 332.096 862.375 277.797 865.004 224.578C867.452 177.229 873.069 129.699 872.205 82.2772C871.881 63.0492 873.322 35.4676 865.436 17.464C858.595 1.94479 839.079 2.08882 824.892 3.06101C824.15 3.14219 823.466 3.49392 822.969 4.04877C822.472 4.60361 822.198 5.3225 822.198 6.06763C822.198 6.81273 822.472 7.53166 822.969 8.08649C823.466 8.64133 824.15 8.99305 824.892 9.07425L825.072 9.03824Z" fill="#191919"/>
<path d="M150.365 52.3186C177.695 53.9029 204.628 50.9503 231.922 52.5347C256.119 53.9389 280.964 52.5347 305.269 52.1026C362.521 51.1304 419.736 50.0502 476.988 50.1222C534.24 50.1942 590.987 51.9585 647.987 54.227C676.793 55.3432 705.598 56.3154 734.404 55.1632C765.047 53.9389 795.365 50.7703 826.079 50.9143C827.494 50.8009 828.819 50.1582 829.781 49.114C830.746 48.0698 831.282 46.7004 831.282 45.2792C831.282 43.858 830.746 42.489 829.781 41.4444C828.819 40.4002 827.494 39.7575 826.079 39.644C767.531 40.4722 710.027 46.4854 651.335 44.325C592.643 42.1646 535.104 40.3642 476.88 40.4002C420.708 40.4002 364.548 41.1322 308.402 42.5966C283.016 43.2088 257.127 44.7931 231.814 44.289C204.34 43.7489 177.803 40.9535 150.257 43.114C149.874 43.1716 149.524 43.3653 149.27 43.6591C149.017 43.9533 148.878 44.3285 148.878 44.7163C148.878 45.1045 149.017 51.4793 149.27 51.7735C149.524 52.0676 149.874 52.261 150.257 52.3186H150.365Z" fill="#191919"/>
<path d="M832.67 45.5856L831.518 43.7132C829.682 40.7246 824.317 41.7328 824.533 45.6216C819.649 61.3928 822.818 76.5879 822.71 92.4312C822.602 108.274 822.278 125.486 821.629 142.013C820.153 180.109 820.729 218.385 820.405 256.517C820.117 293.64 814.729 330.62 817.777 367.671C814.932 404.146 818.231 440.154 818.664 476.773C818.664 478.206 819.232 479.578 820.244 480.593C821.26 481.605 822.632 482.174 824.065 482.174C825.498 482.174 826.87 481.605 827.885 480.593C828.897 479.578 829.466 478.206 829.466 476.773C829.826 441.234 825.806 406.271 828.579 370.839C825.567 332.672 830.955 294.756 830.775 256.517C830.559 219.429 829.623 182.197 830.775 145.11C831.279 128.57 831.557 112.043 831.603 95.5278C831.603 78.1362 828.003 62.5811 832.202 45.4776L825.217 47.35L820.405 49.1864C823.034 53.1472 829.371 49.5464 832.85 45.5856H832.67Z" fill="#191919"/>
<path d="M148.475 43.1696C142.317 76.9085 147.63 117.132 147.342 151.231C147.342 186.302 149.502 221.805 146.442 256.912C143.345 292.668 140.609 327.991 139.996 363.926C139.708 381.714 139.996 399.429 140.645 417.181C141.293 434.933 144.713 457.869 141.437 475.729L146.19 473.784L144.353 472.992C140.753 471.372 137.368 476.593 141.113 478.537L142.913 479.366C143.344 479.607 143.823 479.751 144.316 479.78C144.809 479.812 145.302 479.729 145.759 479.542C146.217 479.355 146.625 479.067 146.956 478.699C147.286 478.332 147.529 477.896 147.666 477.421C150.655 463.558 148.53 447.175 148.422 432.916C148.422 414.336 147.486 395.829 147.666 377.249C148.026 339.153 149.97 301.453 153.859 263.574C157.46 228.791 156.596 193.071 155.624 158.252C154.615 121.633 157.224 79.285 150.455 43.0976C150.385 42.8902 150.253 42.7094 150.075 42.5816C149.897 42.4538 149.684 42.385 149.465 42.385C149.246 42.385 149.033 42.4538 148.855 42.5816C148.677 42.7094 148.544 42.8902 148.475 43.0976V43.1696Z" fill="#191919"/>
<path d="M151.447 474.18L150.367 473.892C150.691 476.305 151.015 478.753 151.303 481.094C157.496 477.493 175.68 481.382 181.909 481.094C195.124 480.698 208.375 478.753 221.517 477.493C245.569 474.285 269.903 473.752 294.072 475.909C353.556 482.606 412.572 482.174 472.309 482.678C531.469 483.218 590.593 485.595 649.753 486.099C679.243 486.351 707.869 484.262 737.214 481.634C751.221 480.374 765.264 479.581 779.307 479.545C785.86 479.545 791.447 481.202 798 481.634C802.933 481.85 816.615 478.751 820 483C824.141 488.149 832.713 478.041 828.5 473C823.279 466.591 819.599 470.832 812.002 470.688C796.338 470.364 780.891 469.535 765.192 470.184C733.218 471.516 701.675 476.557 669.629 476.737C606.04 477.133 542.559 474.216 479.006 473.532C447.535 473.208 416.065 473.82 384.595 473.28C352.188 472.74 318.907 475.801 286.5 473.28C260.107 471.192 235.713 471.547 209.5 474.5C193.962 476.315 177.749 472.614 162.105 472.668C157.172 472.668 151.627 471.552 147.234 474.288C146.601 474.706 146.098 475.293 145.784 475.984C145.469 476.676 145.357 477.443 145.458 478.195C145.56 478.948 145.871 479.653 146.358 480.237C146.844 480.82 147.485 481.256 148.207 481.49L149.287 481.742C150.267 481.915 151.276 481.72 152.118 481.187C152.96 480.658 153.574 479.834 153.839 478.872C154.105 477.914 154.003 476.892 153.554 476.002C153.105 475.117 152.341 474.425 151.411 474.072L151.447 474.18Z" fill="#191919"/>
<path d="M482.677 20.0918C481.366 19.4253 479.861 19.2333 478.425 19.5483C476.988 19.8634 475.702 20.6661 474.791 21.8202C473.65 23.1108 472.948 24.7299 472.786 26.4446C472.627 28.1592 473.013 29.881 473.891 31.3621C474.741 32.769 476.012 33.8734 477.524 34.5195C479.037 35.1655 480.711 35.3206 482.317 34.9629C483.818 34.6752 485.219 33.9886 486.364 32.975C487.513 31.9614 488.363 30.6581 488.834 29.2017C489.003 28.5528 489.022 27.8739 488.892 27.2163C488.759 26.5587 488.481 25.9396 488.074 25.4056C487.668 24.8716 487.149 24.4367 486.548 24.1338C485.95 23.8308 485.291 23.6676 484.621 23.6566H483.901C483.001 23.6891 482.133 24.0095 481.431 24.5706C480.725 25.1317 480.218 25.904 479.984 26.7741C479.75 27.6443 479.804 28.5663 480.131 29.405C480.459 30.2438 481.049 30.9549 481.813 31.4341L482.425 31.7942C482.137 29.4897 481.813 27.2213 481.525 24.9168C481.161 25.2799 480.837 25.6779 480.553 26.105C480.877 25.709 480.877 25.709 480.553 26.105C480.985 25.817 480.985 25.781 480.553 26.105C480.121 26.4291 480.084 26.3571 480.553 26.105C480.048 26.105 480.084 26.105 480.733 26.105C480.192 26.105 480.264 26.105 480.733 26.105C481.201 26.105 481.345 26.4291 480.913 26.105C481.168 26.2468 481.392 26.4436 481.561 26.6812C481.705 27.1373 481.705 27.1373 481.561 26.6812C481.669 26.959 481.669 27.2675 481.561 27.5453C481.741 27.0412 481.561 27.0772 481.561 27.5453C481.647 27.3304 481.755 27.1252 481.885 26.9332C481.572 27.3653 481.572 27.3653 481.885 26.9332C481.237 27.4373 481.381 27.2933 482.389 26.5371C483.397 25.781 482.065 26.5371 482.389 26.5371C482.987 26.2385 483.491 25.7788 483.844 25.2095C484.196 24.6402 484.384 23.984 484.384 23.3145C484.384 22.645 484.196 21.9888 483.844 21.4195C483.491 20.8502 482.987 20.3905 482.389 20.0918H482.677Z" fill="#191919"/>
<path d="M435.942 507.703C451.569 508.063 467.052 506.911 482.751 507.163C491.357 507.163 499.963 507.631 508.569 507.667C510.333 507.667 536.906 509 535.898 510.368C533.522 513.572 539.139 516.993 541.299 513.536C548.789 501.51 527.833 503.274 522.287 503.094C493.482 502.122 464.928 502.446 436.122 503.094C435.51 503.094 434.923 503.336 434.491 503.768C434.059 504.2 433.817 504.787 433.817 505.399C433.817 506.011 434.059 506.594 434.491 507.03C434.923 507.462 435.51 507.703 436.122 507.703H435.942Z" fill="#191919"/>
<path d="M432.087 508.531C431.331 521.818 447.967 517.353 457.041 517.353C483.11 517.353 509.179 517.101 535.248 517.101C536.08 517.101 536.876 516.77 537.463 516.183C538.05 515.596 538.381 514.8 538.381 513.969C538.381 513.137 538.05 512.341 537.463 511.754C536.876 511.167 536.08 510.836 535.248 510.836C525.634 510.836 438.821 514.437 437.741 507.739C437.2 504.391 432.267 505.435 432.087 508.531Z" fill="#191919"/>
<path d="M531.647 508.315C549.003 511.916 567.259 510.512 584.902 510.584C604.958 510.584 624.978 510.584 645.034 510.584L762.094 510.908C833.353 511.124 904.287 512.024 975.51 510.224C976.579 510.224 977.605 509.799 978.361 509.043C979.118 508.287 979.542 507.26 979.542 506.191C979.542 505.122 979.118 504.095 978.361 503.339C977.605 502.583 976.579 502.158 975.51 502.158C904.323 503.815 833.317 503.526 762.094 503.67L648.563 503.959L588.467 504.139C569.707 504.139 550.083 502.698 531.647 506.407C531.464 506.472 531.309 506.591 531.197 506.749C531.086 506.908 531.024 507.095 531.024 507.289C531.024 507.484 531.086 507.671 531.197 507.829C531.309 507.988 531.464 508.107 531.647 508.171V508.315Z" fill="#191919"/>
<path d="M973.314 509.324L974.034 509.864L972.738 507.631C973.35 515.142 973.35 522.693 972.738 530.208C972.161 534.061 977.887 537.589 979.939 533.16C981.314 529.041 981.563 524.627 980.659 520.378C980.331 515.809 979.438 511.297 977.995 506.947C977.8 506.295 977.364 505.741 976.778 505.399C976.187 505.057 975.489 504.952 974.826 505.111L974.034 505.327C973.62 505.442 973.252 505.676 972.968 506C972.687 506.324 972.507 506.724 972.45 507.149C972.392 507.574 972.46 508.006 972.648 508.391C972.831 508.78 973.126 509.1 973.494 509.324H973.314Z" fill="#191919"/>
<path d="M3.20415 508.604C39.6797 508.28 76.0831 508.208 112.415 510.764C147.882 513.213 184.069 506.731 219.644 506.299C256.372 505.831 292.919 505.867 329.575 508.063C365.042 510.152 400.581 508.964 435.94 510.944C440.477 511.232 440.477 504.139 435.94 503.743C364.25 500.142 291.515 499.062 219.644 500.61C184.249 501.402 148.062 508.496 112.775 505.939C76.2992 503.274 39.8237 502.05 3.20415 501.726C2.31603 501.726 1.46427 502.079 0.836276 502.706C0.208275 503.336 -0.144531 504.185 -0.144531 505.075C-0.144531 505.964 0.208275 506.814 0.836276 507.444C1.46427 508.071 2.31603 508.424 3.20415 508.424V508.604Z" fill="#191919"/>
<path d="M7.59817 505.903L7.99425 505.183C8.18135 504.837 8.26395 504.445 8.2319 504.056C8.19989 503.663 8.0546 503.292 7.81389 502.983C7.57318 502.673 7.24746 502.439 6.87659 502.313C6.50571 502.187 6.10578 502.169 5.72579 502.266C2.12504 503.419 1.909 508.424 1.62094 511.52C1.18885 515.985 1.62094 520.414 1.29688 524.879C1.29688 528.768 7.56217 528.732 7.31012 524.879C7.31012 521.746 6.69799 518.614 6.51795 515.445C6.51795 513.861 5.47374 506.695 7.27411 505.903H5.22169L5.83382 506.371C6.13019 506.54 6.48187 506.587 6.81235 506.501C7.14279 506.411 7.42523 506.198 7.59817 505.903Z" fill="#191919"/>
<path d="M1.11548 522.682C1.11548 534.637 29.4892 529.452 35.9345 529.488C62.58 529.488 89.1894 531.324 115.727 531.72C174.671 532.692 232.823 531.72 291.731 528.444C323.741 526.607 355.5 529.128 387.474 528.984C418.872 528.984 449.947 527.939 481.345 530.028C512.744 532.116 543.134 533.629 573.992 535.969C605.931 538.598 638.445 534.997 670.312 532.368C674.453 532.044 674.525 525.599 670.312 525.815C641.506 527.363 612.016 530.136 583.21 528.66C554.404 527.183 524.662 524.807 495.388 523.042C437.776 519.442 379.48 521.53 321.797 521.854C264.689 522.142 207.726 527.507 150.474 527.579C136.071 527.579 5.7244 526.715 5.32832 522.538C5.07627 519.874 1.07947 519.766 1.11548 522.538V522.682Z" fill="#191919"/>
<path d="M555.629 528.948C586.415 535.285 620.622 532.296 652.021 533.917C687.056 535.681 722.235 534.421 757.27 535.645C792.305 536.869 827.809 537.409 862.952 535.645C901.227 533.665 940.403 536.977 978.391 532.8C982.748 532.296 982.964 525.599 978.391 525.815H977.671C976.922 526.035 976.267 526.488 975.799 527.111C975.331 527.734 975.078 528.494 975.078 529.272C975.078 530.05 975.331 530.809 975.799 531.432C976.267 532.055 976.922 532.509 977.671 532.728H978.391V525.707C941.196 528.336 903.748 526.139 866.48 528.624C830.113 530.777 793.659 531.007 757.27 529.308C723.243 528.011 688.856 529.308 654.973 527.507C622.963 525.815 587.207 520.774 555.629 527.291C555.463 527.353 555.323 527.464 555.222 527.608C555.121 527.752 555.067 527.925 555.067 528.101C555.067 528.278 555.121 528.451 555.222 528.595C555.323 528.739 555.463 528.85 555.629 528.912V528.948Z" fill="#191919"/>
<path d="M973.495 532.26C972.559 531.18 973.495 530.784 972.523 532.26C972.217 532.692 971.882 533.103 971.514 533.484C970.758 534.341 969.901 535.105 968.958 535.753C967.179 536.549 965.48 537.514 963.881 538.634C962.837 539.57 962.297 541.802 961.288 542.486C957.688 545.007 961.072 550.984 964.889 548.464C967.086 546.951 967.374 544.179 969.39 542.81C971.446 541.766 973.3 540.362 974.863 538.67C976.628 536.365 980.048 531.468 976.952 528.948C976.502 528.505 975.897 528.256 975.263 528.26C974.633 528.263 974.028 528.515 973.585 528.966C973.142 529.416 972.894 530.021 972.897 530.651C972.901 531.284 973.153 531.889 973.603 532.332L973.495 532.26Z" fill="#191919"/>
<path d="M5.76109 527.867H5.00494C4.67579 527.785 4.33074 527.785 4.00282 527.875C3.67493 527.961 3.37525 528.134 3.13255 528.371C0.107938 531.972 6.22919 538.634 8.46164 541.262C13.9708 547.78 23.7648 548.824 31.5783 550.732C32.1324 550.883 32.7126 550.916 33.2801 550.826C33.8476 550.736 34.3892 550.523 34.8687 550.21C35.3482 549.893 35.7545 549.476 36.0604 548.989C36.3661 548.503 36.5645 547.956 36.6423 547.387C36.72 546.818 36.675 546.238 36.5105 545.688C36.3459 545.137 36.0658 544.629 35.6886 544.197C35.3114 543.761 34.8459 543.415 34.3233 543.174C33.8008 542.937 33.2332 542.811 32.6586 542.811C26.8013 542.829 20.9906 541.77 15.5191 539.678C12.1529 536.934 9.09796 533.834 6.40922 530.424C6.57972 530.244 6.70106 530.024 6.76152 529.783C6.82197 529.542 6.81949 529.293 6.75435 529.052C6.68918 528.814 6.56355 528.595 6.38956 528.418C6.21561 528.242 5.99913 528.116 5.76109 528.047V527.867Z" fill="#191919"/>
<path d="M30.4617 549.76C149.034 559.698 268.11 544.899 386.538 545.511C509.863 546.159 633.441 563.515 756.874 558.006C826.692 554.873 896.69 558.762 966.436 553.541C967.174 553.519 967.891 553.289 968.5 552.867C969.104 552.45 969.58 551.866 969.861 551.182C970.145 550.502 970.221 549.753 970.087 549.025C969.951 548.302 969.609 547.628 969.101 547.095L968.381 546.195C965.284 542.414 959.955 547.779 963.016 551.524L963.772 552.424C964.636 550.264 965.536 548.14 966.436 545.979C904.9 550.66 843.147 548.5 781.467 549.76C719.786 551.02 658.25 549.58 596.317 547.563C534.384 545.547 472.596 538.742 410.735 538.994C350.783 539.21 291.011 539.93 231.239 543.891C198.4 546.087 165.597 545.115 132.651 546.591C98.8038 548.104 64.0567 544.359 30.4617 547.959C30.223 547.959 29.994 548.053 29.8252 548.222C29.6564 548.392 29.5615 548.622 29.5615 548.86C29.5615 549.097 29.6564 549.328 29.8252 549.497C29.994 549.666 30.223 549.76 30.4617 549.76Z" fill="#191919"/>
<path d="M442.098 518.289C442.098 518.001 471.768 519.442 473.461 519.442C486.819 519.442 499.998 521.854 513.285 523.042C523.907 523.906 539.606 523.042 542.091 509.72C543.099 504.751 535.501 502.518 534.421 507.595C531.324 522.538 495.317 513.32 485.883 512.708C471.48 511.772 453.801 510.908 439.722 514.221C439.232 514.361 438.8 514.66 438.494 515.07C438.188 515.481 438.026 515.978 438.029 516.489V517.389C438.044 517.836 438.202 518.264 438.479 518.617C438.757 518.966 439.138 519.218 439.57 519.334C440.003 519.452 440.46 519.427 440.874 519.265C441.292 519.103 441.644 518.811 441.882 518.433L442.098 518.289Z" fill="#191919"/>
<path d="M651.731 556.097C720.145 552.892 788.559 557.141 856.973 557.861C889.704 558.185 923.37 560.526 956.029 558.582C965.355 558.041 965.895 556.025 971.044 549.112C974.645 544.071 980.514 540.83 981.846 534.169C982.088 533.07 981.933 531.922 981.411 530.928C980.888 529.93 980.035 529.149 978.995 528.721C977.958 528.292 976.802 528.242 975.729 528.58C974.656 528.915 973.738 529.621 973.133 530.568C970.076 535.249 965.859 539.055 960.894 541.626C955.925 544.193 950.38 545.432 944.795 545.223C943.592 545.327 942.472 545.878 941.655 546.768C940.838 547.657 940.387 548.824 940.387 550.03C940.387 551.236 940.838 552.403 941.655 553.292C942.472 554.181 943.592 554.732 944.795 554.837C961.826 554.297 971.224 549.256 981.378 535.393L973.133 530.568C969.744 535.771 965.729 540.535 961.178 544.755C952.14 552.208 928.772 548.175 917.573 548.355C889.127 548.355 860.682 549.04 832.236 548.103C772.536 546.087 710.963 545.331 651.587 552.676C649.355 552.964 649.211 556.277 651.587 556.277L651.731 556.097Z" fill="#191919"/>
<path d="M964.6 541.55C955.958 541.55 947.641 544.827 939.395 546.555C927.206 548.856 914.874 550.314 902.487 550.912C899.391 551.128 899.319 555.953 902.487 555.809C912.501 555.363 922.475 554.243 932.337 552.46C942.96 550.552 953.942 545.475 964.744 545.259C965.137 545.147 965.479 544.91 965.723 544.586C965.968 544.262 966.102 543.865 966.102 543.459C966.102 543.052 965.968 542.656 965.723 542.332C965.479 542.008 965.137 541.77 964.744 541.658L964.6 541.55Z" fill="#191919"/>
<path d="M53.1824 506.335C53.1824 510.836 53.1824 515.373 52.7863 519.874C52.3902 524.375 50.9859 528.336 52.7863 532.224C53.6505 534.241 57.1072 535.609 58.2954 532.945C61.8961 524.987 60.4198 514.941 60.2398 506.335C60.0216 505.586 59.5668 504.931 58.9435 504.463C58.3203 503.995 57.5623 503.743 56.7831 503.743C56.0039 503.743 55.246 503.995 54.6227 504.463C53.9994 504.931 53.5446 505.586 53.3264 506.335H53.1824Z" fill="#191919"/>
<path d="M41.2276 516.669C45.1675 513.871 49.4672 511.617 54.0102 509.972C54.3624 509.867 54.6882 509.687 54.9669 509.446C55.2456 509.205 55.4707 508.909 55.6277 508.578C55.7847 508.243 55.87 507.883 55.8783 507.516C55.8866 507.145 55.8178 506.781 55.6759 506.443C55.534 506.101 55.3223 505.795 55.0548 505.543C54.7873 505.291 54.4697 505.096 54.1226 504.977C53.7755 504.855 53.4067 504.805 53.0402 504.837C52.6733 504.866 52.3168 504.97 51.9938 505.147C47.0673 507.041 42.6081 509.975 38.9232 513.752C37.5909 515.229 39.3913 517.965 41.1916 516.669H41.2276Z" fill="#191919"/>
<path d="M42.4527 520.198C44.2566 519.845 46.088 519.651 47.9258 519.622C50.9864 519.838 50.9504 514.545 47.9258 514.869C45.9061 515.269 43.9196 515.823 41.9846 516.525C40.0042 517.101 40.3282 520.378 42.4527 520.126V520.198Z" fill="#191919"/>
<path d="M43.6049 521.566C44.383 522.711 45.276 523.773 46.2694 524.735C47.2416 525.455 48.1418 524.087 47.7457 523.222C47.2413 521.969 46.6266 520.767 45.9094 519.622C45.8035 519.438 45.6598 519.28 45.4877 519.157C45.316 519.035 45.1197 518.952 44.9123 518.912C44.7053 518.873 44.4918 518.876 44.2865 518.927C44.0813 518.977 43.889 519.067 43.7227 519.197C43.5563 519.326 43.4198 519.492 43.3223 519.679C43.2247 519.866 43.1685 520.072 43.1573 520.284C43.1462 520.493 43.1804 520.705 43.2574 520.9C43.3349 521.098 43.453 521.274 43.6049 521.422V521.566Z" fill="#191919"/>
<path d="M10.479 539.426C16.4562 550.228 30.283 552.712 41.6975 552.568C62.4377 552.352 83.9341 550.336 104.602 552.964C109.175 553.541 110.147 545.763 105.683 544.899C90.4874 541.298 74.0681 543.567 58.5489 543.206C45.9824 542.918 24.0898 548.68 15.5921 536.473C15.1934 535.811 14.5499 535.328 13.8003 535.134C13.0507 534.943 12.255 535.051 11.5845 535.436C10.914 535.825 10.4224 536.459 10.2156 537.204C10.0089 537.953 10.1035 538.749 10.479 539.426Z" fill="#191919"/>
<path d="M97.94 549.22C116.124 552.028 135.82 549.832 154.219 549.976C177.012 549.601 199.756 547.751 222.309 544.431C222.873 544.431 223.413 544.207 223.812 543.808C224.21 543.412 224.434 542.868 224.434 542.306C224.434 541.741 224.21 541.201 223.812 540.805C223.413 540.405 222.873 540.182 222.309 540.182C199.697 538.057 176.904 543.242 154.219 543.351C135.329 543.023 116.458 544.748 97.94 548.5C97.5799 548.5 97.5799 549.184 97.94 549.22Z" fill="#191919"/>
<path fill-rule="evenodd" clip-rule="evenodd" d="M159.5 478C159.497 476.067 145.557 475.998 147.49 475.995L249 472.5L271.5 473.5L593.5 477.5L659.5 472.5L825.489 474.995C827.422 474.992 828.991 476.557 828.994 478.49C828.997 480.423 827.432 481.992 825.499 481.995L182 481C180.067 481.003 159.503 479.933 159.5 478Z" fill="#191919"/>
</g>
<defs>
<clipPath id="clip0">
<rect width="983" height="561.714" fill="white"/>
</clipPath>
</defs>
</svg>
